<svg xmlns="http://www.w3.org/2000/svg" fill-rule="evenodd" stroke-linejoin="round" stroke-miterlimit="2" clip-rule="evenodd" viewBox="0 0 32 32"><path d="M30,10l-6,-0l0,20l3,0c1.656,0 3,-1.344 3,-3l0,-17Zm-8,20l-8,0l0,-6l8,0l0,6Zm-20,-6l0,3c0,1.656 1.344,3 3,3l7,0l0,-6l-10,0Zm10,-2l-10,0l0,-12l10,-0l0,12Zm10,0l-8,0l0,-12l8,-0l0,12Zm-20,-14l28,-0l0,-3c0,-1.656 -1.344,-3 -3,-3l-22,0c-1.656,0 -3,1.344 -3,3l0,3Zm18,-4c0.552,0 1,0.448 1,1c0,0.552 -0.448,1 -1,1c-0.552,0 -1,-0.448 -1,-1c0,-0.552 0.448,-1 1,-1Zm3,0c0.552,0 1,0.448 1,1c0,0.552 -0.448,1 -1,1c-0.552,0 -1,-0.448 -1,-1c0,-0.552 0.448,-1 1,-1Zm3,0c0.552,0 1,0.448 1,1c0,0.552 -0.448,1 -1,1c-0.552,0 -1,-0.448 -1,-1c0,-0.552 0.448,-1 1,-1Z"/></svg>