<svg xmlns="http://www.w3.org/2000/svg" data-name="Layer 1" viewBox="0 0 64 64"><path d="M41 60H23a8 8 0 0 1-8-8V12a8 8 0 0 1 8-8h18a8 8 0 0 1 8 8v40a8 8 0 0 1-8 8zM23 8a4 4 0 0 0-4 4v40a4 4 0 0 0 4 4h18a4 4 0 0 0 4-4V12a4 4 0 0 0-4-4z"/><path d="M32 54a1.75 1.75 0 01-.39 0 2.38 2.38 0 01-.38-.11 2.23 2.23 0 01-.34-.19 1.77 1.77 0 01-.3-.24 1.83 1.83 0 01-.25-.31 1.67 1.67 0 01-.19-.34 1.8 1.8 0 01-.11-.38A1.7 1.7 0 0130 52a2 2 0 01.59-1.41 1.43 1.43 0 01.3-.25 2.28 2.28 0 01.34-.19 1.65 1.65 0 01.38-.11 2 2 0 01.78 0 1.65 1.65 0 01.38.11 2.23 2.23 0 01.34.19 1.43 1.43 0 01.3.25A2 2 0 0134 52a2 2 0 01-2 2zM56 55H45V10h11a8 8 0 018 8v29a8 8 0 01-8 8zm-7-4h7a4 4 0 004-4V18a4 4 0 00-4-4h-7zM19 55H8a8 8 0 01-8-8V18a8 8 0 018-8h11zM8 14a4 4 0 00-4 4v29a4 4 0 004 4h7V14z"/></svg>